# The Great Editor v0.0.1
mtllib floor_1.mtl
o floor_1
v 44.09883500740253 -11.572552938737692 0
v 44.09883500740253 -11.572552938737692 -0.1
v 45.00021925501038 -11.953556041082138 0
v 45.00021925501038 -11.953556041082138 -0.1
v 43.69919183155787 -15.178239049757096 0
v 43.69919183155787 -15.178239049757096 -0.1
v 44.38141852166583 -15.524894709998474 0
v 44.38141852166583 -15.524894709998474 -0.1
v 44.97904413151413 -15.873787179059878 0
v 44.97904413151413 -15.873787179059878 -0.1
v 45.43232101217676 -16.416387291935543 0
v 45.43232101217676 -16.416387291935543 -0.1
v 45.76888617929668 -16.917780415660058 0
v 45.76888617929668 -16.917780415660058 -0.1
v 45.98799402993391 -17.432147030540726 0
v 45.98799402993391 -17.432147030540726 -0.1
v 46.11370268561937 -18.07639767757091 0
v 46.11370268561937 -18.07639767757091 -0.1
v 46.12941005422222 -18.73113647262388 0
v 46.12941005422222 -18.73113647262388 -0.1
v 46.01945847400227 -19.443485521508194 0
v 46.01945847400227 -19.443485521508194 -0.1
v 45.587058475659894 -19.445821744053553 0
v 45.587058475659894 -19.445821744053553 -0.1
v 45.43500518276078 -19.673926536833548 0
v 45.43500518276078 -19.673926536833548 -0.1
v 45.45672708174637 -19.95631122364618 0
v 45.45672708174637 -19.95631122364618 -0.1
v 45.60878037464548 -20.227859814397345 0
v 45.60878037464548 -20.227859814397345 -0.1
v 45.185178490995206 -20.727463491065844 0
v 45.185178490995206 -20.727463491065844 -0.1
v 44.775444822029094 -21.19679568836998 0
v 44.775444822029094 -21.19679568836998 -0.1
v 44.20804098468247 -21.59002667893057 0
v 44.20804098468247 -21.59002667893057 -0.1
v 43.63502027185445 -21.842835782456188 0
v 43.63502027185445 -21.842835782456188 -0.1
v 43.005830804212444 -21.92708891467717 0
v 43.005830804212444 -21.92708891467717 -0.1
v 42.4160091718029 -21.93832266563997 0
v 42.4160091718029 -21.93832266563997 -0.1
v 41.510300427142994 -21.784927287448845 0
v 41.510300427142994 -21.784927287448845 -0.1
v 41.654400622015345 -21.504381754554906 0
v 41.654400622015345 -21.504381754554906 -0.1
v 41.510300427142994 -21.307194630353937 0
v 41.510300427142994 -21.307194630353937 -0.1
v 41.21459430113555 -21.292034037240427 0
v 41.21459430113555 -21.292034037240427 -0.1
v 40.97784051425145 -21.517007297672386 0
v 40.97784051425145 -21.517007297672386 -0.1
v 40.59584327465366 -21.314750073479363 0
v 40.59584327465366 -21.314750073479363 -0.1
v 40.04653273531792 -20.76901842825566 0
v 40.04653273531792 -20.76901842825566 -0.1
v 39.70300860742458 -20.04797067840458 0
v 39.70300860742458 -20.04797067840458 -0.1
v 39.62959157126505 -19.702507982867218 0
v 39.62959157126505 -19.702507982867218 -0.1
v 38.8397495234825 -19.946121316799392 0
v 38.8397495234825 -19.946121316799392 -0.1
v 38.95492032428251 -20.17636350467408 0
v 38.95492032428251 -20.17636350467408 -0.1
v 35.9996982181267 -21.32777327149818 0
v 35.9996982181267 -21.32777327149818 -0.1
v 35.84615371934757 -21.05910767878171 0
v 35.84615371934757 -21.05910767878171 -0.1
v 34.733167357365254 -21.51969146825642 0
v 34.733167357365254 -21.51969146825642 -0.1
v 33.965593984057634 -19.485537527324684 0
v 33.965593984057634 -19.485537527324684 -0.1
v 35.06361858037711 -19.058406456425033 0
v 35.06361858037711 -19.058406456425033 -0.1
v 35.65428522945201 -18.79471154997529 0
v 35.65428522945201 -18.79471154997529 -0.1
v 36.060887366070084 -17.931949534659893 0
v 36.060887366070084 -17.931949534659893 -0.1
v 36.43478238705311 -17.123815361415794 0
v 36.43478238705311 -17.123815361415794 -0.1
v 35.754792505765174 -16.993334846914273 0
v 35.754792505765174 -16.993334846914273 -0.1
v 33.52051873573511 -16.050147127803267 0
v 33.52051873573511 -16.050147127803267 -0.1
v 32.64339143710887 -15.67461178035222 0
v 32.64339143710887 -15.67461178035222 -0.1
v 32.787690459431886 -15.348286226941745 0
v 32.787690459431886 -15.348286226941745 -0.1
v 30.069520381336176 -14.197025580705647 0
v 30.069520381336176 -14.197025580705647 -0.1
v 29.939338108010656 -14.516541293930707 0
v 29.939338108010656 -14.516541293930707 -0.1
v 23.712857662860674 -11.84211325498217 0
v 23.712857662860674 -11.84211325498217 -0.1
v 23.089881553052074 -13.333418548724902 0
v 23.089881553052074 -13.333418548724902 -0.1
v 22.20261405444172 -12.937006318953612 0
v 22.20261405444172 -12.937006318953612 -0.1
v 22.863317673014762 -11.483428533975317 0
v 22.863317673014762 -11.483428533975317 -0.1
v 12.549839565638427 -6.858702031414692 0
v 12.549839565638427 -6.858702031414692 -0.1
v 13.12554444905048 -5.668968273474144 0
v 13.12554444905048 -5.668968273474144 -0.1
v 14.020317683923585 -5.958262214197519 0
v 14.020317683923585 -5.958262214197519 -0.1
v 14.184350330725499 -5.643916014689851 0
v 14.184350330725499 -5.643916014689851 -0.1
v 15.168397090948979 -6.10862547376594 0
v 15.168397090948979 -6.10862547376594 -0.1
v 15.11371954201501 -6.340955349872651 0
v 15.11371954201501 -6.340955349872651 -0.1
v 16.220790787339926 -6.833003583415726 0
v 16.220790787339926 -6.833003583415726 -0.1
v 16.302807110740883 -6.668970936613811 0
v 16.302807110740883 -6.668970936613811 -0.1
v 21.83816333736547 -9.10182362299953 0
v 21.83816333736547 -9.10182362299953 -0.1
v 21.769816401198003 -9.457177984207677 0
v 21.769816401198003 -9.457177984207677 -0.1
v 22.64455777041621 -9.826201732649315 0
v 22.64455777041621 -9.826201732649315 -0.1
v 24.434998963690433 -10.523241067832114 0
v 24.434998963690433 -10.523241067832114 -0.1
v 24.585362223258855 -10.249903030024926 0
v 24.585362223258855 -10.249903030024926 -0.1
v 25.625229790257656 -10.735340250833257 0
v 25.625229790257656 -10.735340250833257 -0.1
v 26.508769274167964 -11.367015061608628 0
v 26.508769274167964 -11.367015061608628 -0.1
v 28.46577816424013 -12.250306011205598 0
v 28.46577816424013 -12.250306011205598 -0.1
v 28.736282910875286 -12.263826277851091 0
v 28.736282910875286 -12.263826277851091 -0.1
v 28.825158781324323 -12.067384756590132 0
v 28.825158781324323 -12.067384756590132 -0.1
v 29.304382644299245 -10.924723397595466 0
v 29.304382644299245 -10.924723397595466 -0.1
v 29.047398164309584 -10.789471024277889 0
v 29.047398164309584 -10.789471024277889 -0.1
v 31.19806499133334 -6.055240303261318 0
v 31.19806499133334 -6.055240303261318 -0.1
v 33.45699336524637 -7.083227930082645 0
v 33.45699336524637 -7.083227930082645 -0.1
v 31.591991877971275 -11.173009176618363 0
v 31.591991877971275 -11.173009176618363 -0.1
v 32.64687091749558 -11.68921494541772 0
v 32.64687091749558 -11.68921494541772 -0.1
v 32.242853537736195 -12.474732496148219 0
v 32.242853537736195 -12.474732496148219 -0.1
v 31.81646806977656 -12.295191308194124 0
v 31.81646806977656 -12.295191308194124 -0.1
v 31.5312500917919 -13.036618871738773 0
v 31.5312500917919 -13.036618871738773 -0.1
v 29.832816301314743 -12.313930795419674 0
v 29.832816301314743 -12.313930795419674 -0.1
v 29.772372756311373 -12.48010083731628 0
v 29.772372756311373 -12.48010083731628 -0.1
v 34.23575078265412 -14.370104876512999 0
v 34.23575078265412 -14.370104876512999 -0.1
v 37.13535090948528 -15.667752233304139 0
v 37.13535090948528 -15.667752233304139 -0.1
v 37.33755842681564 -15.145531934122047 0
v 37.33755842681564 -15.145531934122047 -0.1
v 39.62680798695569 -16.133058174732238 0
v 39.62680798695569 -16.133058174732238 -0.1
v 40.76872374301034 -13.366821560437293 0
v 40.76872374301034 -13.366821560437293 -0.1
v 41.70967465330133 -13.792660252907597 0
v 41.70967465330133 -13.792660252907597 -0.1
v 41.60663232699212 -14.074249629917546 0
v 41.60663232699212 -14.074249629917546 -0.1
v 42.07372771547624 -14.259705934529043 0
v 42.07372771547624 -14.259705934529043 -0.1
v 42.15614169377853 -14.03990218781448 0
v 42.15614169377853 -14.03990218781448 -0.1
v 42.732741300718594 -14.323281011880452 0
v 42.732741300718594 -14.323281011880452 -0.1
v 42.890709710275104 -14.295395461924127 0
v 42.890709710275104 -14.295395461924127 -0.1
v 19.143489582165266 -9.815398856924157 0
v 19.143489582165266 -9.815398856924157 -0.1
v 21.972125176930355 -11.083803740805209 0
v 21.972125176930355 -11.083803740805209 -0.1
v 25.877341921276255 -12.771813017402273 0
v 25.877341921276255 -12.771813017402273 -0.1
v 24.84057089248735 -12.326494103484801 0
v 24.84057089248735 -12.326494103484801 -0.1
v 31.664173215916115 -13.281178068262122 0
v 31.664173215916115 -13.281178068262122 -0.1
v 32.459623187708516 -13.618008973194106 0
v 32.459623187708516 -13.618008973194106 -0.1
v 31.376586137784102 -13.159400182525731 0
v 31.376586137784102 -13.159400182525731 -0.1
vt 44.09883500740253 -11.572552938737692 0
vt 45.00021925501038 -11.953556041082138 0
vt 43.69919183155787 -15.178239049757096 0
vt 44.38141852166583 -15.524894709998474 0
vt 44.97904413151413 -15.873787179059878 0
vt 45.43232101217676 -16.416387291935543 0
vt 45.76888617929668 -16.917780415660058 0
vt 45.98799402993391 -17.432147030540726 0
vt 46.11370268561937 -18.07639767757091 0
vt 46.12941005422222 -18.73113647262388 0
vt 46.01945847400227 -19.443485521508194 0
vt 45.587058475659894 -19.445821744053553 0
vt 45.43500518276078 -19.673926536833548 0
vt 45.45672708174637 -19.95631122364618 0
vt 45.60878037464548 -20.227859814397345 0
vt 45.185178490995206 -20.727463491065844 0
vt 44.775444822029094 -21.19679568836998 0
vt 44.20804098468247 -21.59002667893057 0
vt 43.63502027185445 -21.842835782456188 0
vt 43.005830804212444 -21.92708891467717 0
vt 42.4160091718029 -21.93832266563997 0
vt 41.510300427142994 -21.784927287448845 0
vt 41.654400622015345 -21.504381754554906 0
vt 41.510300427142994 -21.307194630353937 0
vt 41.21459430113555 -21.292034037240427 0
vt 40.97784051425145 -21.517007297672386 0
vt 40.59584327465366 -21.314750073479363 0
vt 40.04653273531792 -20.76901842825566 0
vt 39.70300860742458 -20.04797067840458 0
vt 39.62959157126505 -19.702507982867218 0
vt 38.8397495234825 -19.946121316799392 0
vt 38.95492032428251 -20.17636350467408 0
vt 35.9996982181267 -21.32777327149818 0
vt 35.84615371934757 -21.05910767878171 0
vt 34.733167357365254 -21.51969146825642 0
vt 33.965593984057634 -19.485537527324684 0
vt 35.06361858037711 -19.058406456425033 0
vt 35.65428522945201 -18.79471154997529 0
vt 36.060887366070084 -17.931949534659893 0
vt 36.43478238705311 -17.123815361415794 0
vt 35.754792505765174 -16.993334846914273 0
vt 33.52051873573511 -16.050147127803267 0
vt 32.64339143710887 -15.67461178035222 0
vt 32.787690459431886 -15.348286226941745 0
vt 30.069520381336176 -14.197025580705647 0
vt 29.939338108010656 -14.516541293930707 0
vt 23.712857662860674 -11.84211325498217 0
vt 23.089881553052074 -13.333418548724902 0
vt 22.20261405444172 -12.937006318953612 0
vt 22.863317673014762 -11.483428533975317 0
vt 12.549839565638427 -6.858702031414692 0
vt 13.12554444905048 -5.668968273474144 0
vt 14.020317683923585 -5.958262214197519 0
vt 14.184350330725499 -5.643916014689851 0
vt 15.168397090948979 -6.10862547376594 0
vt 15.11371954201501 -6.340955349872651 0
vt 16.220790787339926 -6.833003583415726 0
vt 16.302807110740883 -6.668970936613811 0
vt 21.83816333736547 -9.10182362299953 0
vt 21.769816401198003 -9.457177984207677 0
vt 22.64455777041621 -9.826201732649315 0
vt 24.434998963690433 -10.523241067832114 0
vt 24.585362223258855 -10.249903030024926 0
vt 25.625229790257656 -10.735340250833257 0
vt 26.508769274167964 -11.367015061608628 0
vt 28.46577816424013 -12.250306011205598 0
vt 28.736282910875286 -12.263826277851091 0
vt 28.825158781324323 -12.067384756590132 0
vt 29.304382644299245 -10.924723397595466 0
vt 29.047398164309584 -10.789471024277889 0
vt 31.19806499133334 -6.055240303261318 0
vt 33.45699336524637 -7.083227930082645 0
vt 31.591991877971275 -11.173009176618363 0
vt 32.64687091749558 -11.68921494541772 0
vt 32.242853537736195 -12.474732496148219 0
vt 31.81646806977656 -12.295191308194124 0
vt 31.5312500917919 -13.036618871738773 0
vt 29.832816301314743 -12.313930795419674 0
vt 29.772372756311373 -12.48010083731628 0
vt 34.23575078265412 -14.370104876512999 0
vt 37.13535090948528 -15.667752233304139 0
vt 37.33755842681564 -15.145531934122047 0
vt 39.62680798695569 -16.133058174732238 0
vt 40.76872374301034 -13.366821560437293 0
vt 41.70967465330133 -13.792660252907597 0
vt 41.60663232699212 -14.074249629917546 0
vt 42.07372771547624 -14.259705934529043 0
vt 42.15614169377853 -14.03990218781448 0
vt 42.732741300718594 -14.323281011880452 0
vt 42.890709710275104 -14.295395461924127 0
vt 19.143489582165266 -9.815398856924157 0
vt 21.972125176930355 -11.083803740805209 0
vt 25.877341921276255 -12.771813017402273 0
vt 24.84057089248735 -12.326494103484801 0
vt 31.664173215916115 -13.281178068262122 0
vt 32.459623187708516 -13.618008973194106 0
vt 31.376586137784102 -13.159400182525731 0
vn 0 0 1
vn 0 0 -1
usemtl floor_1
s off
f 181/91/1 113/57/1 101/51/1
f 102/51/2 114/57/2 182/91/2
f 101/51/1 113/57/1 111/56/1
f 112/56/2 114/57/2 102/51/2
f 101/51/1 111/56/1 105/53/1
f 106/53/2 112/56/2 102/51/2
f 101/51/1 105/53/1 103/52/1
f 104/52/2 106/53/2 102/51/2
f 107/54/1 105/53/1 109/55/1
f 110/55/2 106/53/2 108/54/2
f 141/71/1 139/70/1 137/69/1
f 138/69/2 140/70/2 142/71/2
f 141/71/1 137/69/1 145/73/1
f 146/73/2 138/69/2 142/71/2
f 141/71/1 145/73/1 143/72/1
f 144/72/2 146/73/2 142/71/2
f 1/1/1 179/90/1 3/2/1
f 4/2/2 180/90/2 2/1/2
f 3/2/1 179/90/1 5/3/1
f 6/3/2 180/90/2 4/2/2
f 41/21/1 39/20/1 47/24/1
f 48/24/2 40/20/2 42/21/2
f 41/21/1 47/24/1 45/23/1
f 46/23/2 48/24/2 42/21/2
f 41/21/1 45/23/1 43/22/1
f 44/22/2 46/23/2 42/21/2
f 69/35/1 67/34/1 71/36/1
f 72/36/2 68/34/2 70/35/2
f 97/49/1 95/48/1 99/50/1
f 100/50/2 96/48/2 98/49/2
f 119/60/1 183/92/1 99/50/1
f 100/50/2 184/92/2 120/60/2
f 181/91/1 119/60/1 113/57/1
f 114/57/2 120/60/2 182/91/2
f 181/91/1 183/92/1 119/60/1
f 120/60/2 184/92/2 182/91/2
f 113/57/1 119/60/1 117/59/1
f 118/59/2 120/60/2 114/57/2
f 113/57/1 117/59/1 115/58/1
f 116/58/2 118/59/2 114/57/2
f 111/56/1 109/55/1 105/53/1
f 106/53/2 110/55/2 112/56/2
f 125/63/1 123/62/1 127/64/1
f 128/64/2 124/62/2 126/63/2
f 127/64/1 123/62/1 93/47/1
f 94/47/2 124/62/2 128/64/2
f 127/64/1 93/47/1 129/65/1
f 130/65/2 94/47/2 128/64/2
f 137/69/1 135/68/1 155/78/1
f 156/78/2 136/68/2 138/69/2
f 137/69/1 155/78/1 145/73/1
f 146/73/2 156/78/2 138/69/2
f 145/73/1 155/78/1 151/76/1
f 152/76/2 156/78/2 146/73/2
f 145/73/1 151/76/1 147/74/1
f 148/74/2 152/76/2 146/73/2
f 147/74/1 151/76/1 149/75/1
f 150/75/2 152/76/2 148/74/2
f 167/84/1 165/83/1 171/86/1
f 172/86/2 166/83/2 168/84/2
f 167/84/1 171/86/1 169/85/1
f 170/85/2 172/86/2 168/84/2
f 175/88/1 173/87/1 177/89/1
f 178/89/2 174/87/2 176/88/2
f 179/90/1 177/89/1 5/3/1
f 6/3/2 178/89/2 180/90/2
f 5/3/1 177/89/1 173/87/1
f 174/87/2 178/89/2 6/3/2
f 5/3/1 173/87/1 165/83/1
f 166/83/2 174/87/2 6/3/2
f 5/3/1 165/83/1 59/30/1
f 60/30/2 166/83/2 6/3/2
f 5/3/1 59/30/1 47/24/1
f 48/24/2 60/30/2 6/3/2
f 5/3/1 47/24/1 25/13/1
f 26/13/2 48/24/2 6/3/2
f 5/3/1 25/13/1 7/4/1
f 8/4/2 26/13/2 6/3/2
f 7/4/1 25/13/1 11/6/1
f 12/6/2 26/13/2 8/4/2
f 7/4/1 11/6/1 9/5/1
f 10/5/2 12/6/2 8/4/2
f 11/6/1 25/13/1 23/12/1
f 24/12/2 26/13/2 12/6/2
f 11/6/1 23/12/1 13/7/1
f 14/7/2 24/12/2 12/6/2
f 13/7/1 23/12/1 15/8/1
f 16/8/2 24/12/2 14/7/2
f 15/8/1 23/12/1 17/9/1
f 18/9/2 24/12/2 16/8/2
f 17/9/1 23/12/1 19/10/1
f 20/10/2 24/12/2 18/9/2
f 19/10/1 23/12/1 21/11/1
f 22/11/2 24/12/2 20/10/2
f 29/15/1 27/14/1 31/16/1
f 32/16/2 28/14/2 30/15/2
f 31/16/1 27/14/1 25/13/1
f 26/13/2 28/14/2 32/16/2
f 31/16/1 25/13/1 33/17/1
f 34/17/2 26/13/2 32/16/2
f 33/17/1 25/13/1 35/18/1
f 36/18/2 26/13/2 34/17/2
f 35/18/1 25/13/1 47/24/1
f 48/24/2 26/13/2 36/18/2
f 35/18/1 47/24/1 37/19/1
f 38/19/2 48/24/2 36/18/2
f 37/19/1 47/24/1 39/20/1
f 40/20/2 48/24/2 38/19/2
f 47/24/1 59/30/1 49/25/1
f 50/25/2 60/30/2 48/24/2
f 65/33/1 63/32/1 61/31/1
f 62/31/2 64/32/2 66/33/2
f 65/33/1 61/31/1 67/34/1
f 68/34/2 62/31/2 66/33/2
f 67/34/1 61/31/1 75/38/1
f 76/38/2 62/31/2 68/34/2
f 67/34/1 75/38/1 73/37/1
f 74/37/2 76/38/2 68/34/2
f 67/34/1 73/37/1 71/36/1
f 72/36/2 74/37/2 68/34/2
f 185/93/1 91/46/1 131/66/1
f 132/66/2 92/46/2 186/93/2
f 187/94/1 185/93/1 129/65/1
f 130/65/2 186/93/2 188/94/2
f 185/93/1 131/66/1 129/65/1
f 130/65/2 132/66/2 186/93/2
f 93/47/1 187/94/1 129/65/1
f 130/65/2 188/94/2 94/47/2
f 95/48/1 93/47/1 99/50/1
f 100/50/2 94/47/2 96/48/2
f 99/50/1 93/47/1 123/62/1
f 124/62/2 94/47/2 100/50/2
f 99/50/1 123/62/1 121/61/1
f 122/61/2 124/62/2 100/50/2
f 99/50/1 121/61/1 119/60/1
f 120/60/2 122/61/2 100/50/2
f 131/66/1 91/46/1 133/67/1
f 134/67/2 92/46/2 132/66/2
f 135/68/1 133/67/1 157/79/1
f 158/79/2 134/67/2 136/68/2
f 135/68/1 157/79/1 155/78/1
f 156/78/2 158/79/2 136/68/2
f 155/78/1 153/77/1 151/76/1
f 152/76/2 154/77/2 156/78/2
f 189/95/1 87/44/1 191/96/1
f 192/96/2 88/44/2 190/95/2
f 191/96/1 87/44/1 159/80/1
f 160/80/2 88/44/2 192/96/2
f 159/80/1 87/44/1 83/42/1
f 84/42/2 88/44/2 160/80/2
f 159/80/1 83/42/1 81/41/1
f 82/41/2 84/42/2 160/80/2
f 159/80/1 81/41/1 161/81/1
f 162/81/2 82/41/2 160/80/2
f 163/82/1 161/81/1 165/83/1
f 166/83/2 162/81/2 164/82/2
f 165/83/1 161/81/1 79/40/1
f 80/40/2 162/81/2 166/83/2
f 165/83/1 79/40/1 61/31/1
f 62/31/2 80/40/2 166/83/2
f 165/83/1 61/31/1 59/30/1
f 60/30/2 62/31/2 166/83/2
f 59/30/1 57/29/1 49/25/1
f 50/25/2 58/29/2 60/30/2
f 49/25/1 57/29/1 55/28/1
f 56/28/2 58/29/2 50/25/2
f 49/25/1 55/28/1 53/27/1
f 54/27/2 56/28/2 50/25/2
f 49/25/1 53/27/1 51/26/1
f 52/26/2 54/27/2 50/25/2
f 61/31/1 79/40/1 77/39/1
f 78/39/2 80/40/2 62/31/2
f 61/31/1 77/39/1 75/38/1
f 76/38/2 78/39/2 62/31/2
f 81/41/1 79/40/1 161/81/1
f 162/81/2 80/40/2 82/41/2
f 83/42/1 87/44/1 85/43/1
f 86/43/2 88/44/2 84/42/2
f 91/46/1 89/45/1 133/67/1
f 134/67/2 90/45/2 92/46/2
f 133/67/1 89/45/1 157/79/1
f 158/79/2 90/45/2 134/67/2
f 157/79/1 89/45/1 193/97/1
f 194/97/2 90/45/2 158/79/2
f 89/45/1 87/44/1 189/95/1
f 190/95/2 88/44/2 90/45/2
f 89/45/1 189/95/1 193/97/1
f 194/97/2 190/95/2 90/45/2
f 165/83/1 173/87/1 171/86/1
f 172/86/2 174/87/2 166/83/2
